<svg xmlns="http://www.w3.org/2000/svg" xml:space="preserve" viewBox="0 0 1215 175" style="fill-rule:evenodd;clip-rule:evenodd;stroke-linejoin:round;stroke-miterlimit:2;">
    <path d="M0 0h1920v1080H0z" fill="none" transform="scale(.6327 .16162)"/>
    <path d="M1053.02 205.51c35.59 0 64.27 10.1 84.98 30.81 20.72 21.25 31.34 52.05 31.34 93.48v162.53h-66.4V338.3c0-24.96-5.3-43.55-16.46-56.3-11.15-12.22-26.55-18.6-47.27-18.6-22.3 0-40.37 7.45-53.65 21.79-13.27 14.87-20.18 36.11-20.18 63.2v143.94h-66.4V338.3c0-24.96-5.3-43.55-16.46-56.3-11.15-12.22-26.56-18.6-47.27-18.6-22.84 0-40.37 7.45-53.65 21.79-13.27 14.34-20.18 35.58-20.18 63.2v143.94h-66.4V208.7h63.21v36.12c10.63-12.75 23.9-22.3 39.84-29.21 15.93-6.9 33.46-10.1 53.11-10.1 21.25 0 40.37 3.72 56.84 11.69 16.46 8.5 29.21 20.18 38.77 35.59 11.69-14.88 26.56-26.56 45.15-35.06 18.59-7.97 38.77-12.22 61.08-12.22m329.84 290.54c-28.68 0-54.7-6.37-77.54-18.59a133.24 133.24 0 0 1-53.65-52.05c-13.28-21.78-19.65-46.74-19.65-74.9 0-28.14 6.37-53.1 19.65-74.88a135.4 135.4 0 0 1 53.65-51.53c22.84-12.21 48.86-18.59 77.54-18.59 29.22 0 55.24 6.38 78.08 18.6 22.84 12.21 40.9 29.74 54.18 51.52 12.75 21.77 19.12 46.74 19.12 74.89s-6.37 53.11-19.12 74.89c-13.28 22.3-31.34 39.83-54.18 52.05s-48.86 18.6-78.08 18.6zm0-56.83c24.44 0 44.62-7.97 60.55-24.43 15.94-16.47 23.9-37.72 23.9-64.27 0-26.56-7.96-47.8-23.9-64.27-15.93-16.47-36.11-24.43-60.55-24.43-24.43 0-44.61 7.96-60.02 24.43-15.93 16.46-23.9 37.71-23.9 64.27 0 26.55 7.97 47.8 23.9 64.27 15.4 16.46 35.6 24.43 60.02 24.43m491.32-341v394.11h-63.74v-36.65a108 108 0 0 1-40.37 30.28c-16.46 6.9-34 10.1-53.65 10.1-27.08 0-51.52-5.85-73.3-18.07-21.77-12.21-39.3-29.21-51.52-51.52-12.21-21.78-18.59-47.27-18.59-75.95s6.38-54.18 18.6-75.96c12.21-21.77 29.74-38.77 51.52-50.99 21.77-12.21 46.2-18.06 73.3-18.06 18.59 0 36.11 3.2 51.52 9.56a106.4 106.4 0 0 1 39.83 28.69V98.22zm-149.79 341c15.94 0 30.28-3.72 43.03-11.16 12.74-6.9 22.83-17.52 30.27-30.8s11.15-29.21 11.15-46.74-3.71-33.46-11.15-46.74-17.53-23.9-30.27-31.34c-12.75-6.9-27.1-10.62-43.03-10.62s-30.27 3.71-43.02 10.62c-12.75 7.43-22.84 18.06-30.28 31.34-7.43 13.28-11.15 29.2-11.15 46.74 0 17.53 3.72 33.46 11.15 46.74 7.44 13.28 17.53 23.9 30.28 30.8q19.125 11.16 43.02 11.16m298.51-189.09c19.12-29.74 52.58-44.62 100.92-44.62v63.21a84.3 84.3 0 0 0-15.4-1.6c-26.03 0-46.22 7.44-60.56 22.32-14.34 15.4-21.78 37.18-21.78 65.33v137.56h-66.39V208.7h63.2v41.43zm155.62-41.43h66.4v283.63h-66.4zm33.47-46.74c-12.22 0-22.31-3.72-30.28-11.68a37.39 37.39 0 0 1-12.21-28.16c0-11.15 4.25-20.71 12.21-28.68 7.97-7.43 18.06-11.15 30.28-11.15 12.21 0 22.3 3.72 30.27 10.62 7.97 7.44 12.22 16.47 12.22 27.62 0 11.69-3.72 21.25-11.69 29.21-7.96 7.97-18.59 12.22-30.8 12.22m279.38 43.55c35.59 0 64.27 10.63 86.05 31.34 21.78 20.72 32.4 52.05 32.4 92.95v162.53h-66.4V338.3c0-24.96-5.84-43.55-17.52-56.3-11.69-12.22-28.15-18.6-49.93-18.6-24.43 0-43.55 7.45-57.9 21.79-14.34 14.87-21.24 36.11-21.24 63.73v143.41h-66.4V208.7h63.21v36.65c11.16-13.28 24.97-22.84 41.43-29.74 16.47-6.9 35.59-10.1 56.3-10.1m371.81 271.42a78.3 78.3 0 0 1-28.15 14.34 130.9 130.9 0 0 1-35.6 4.78c-31.33 0-55.23-7.97-72.23-24.43-17-16.47-25.5-39.84-25.5-71.17V263.94h-46.73v-53.11h46.74v-64.8h66.4v64.8h75.95v53.11h-75.96v134.91c0 13.81 3.19 24.43 10.1 31.34 6.9 7.44 16.46 11.15 29.2 11.15 14.88 0 27.1-3.71 37.19-11.68zm214.05-271.42c35.59 0 64.27 10.63 86.05 31.34 21.77 20.72 32.4 52.05 32.4 92.95v162.53h-66.4V338.3c0-24.96-5.84-43.55-17.53-56.3-11.68-12.22-28.15-18.6-49.92-18.6-24.44 0-43.56 7.45-57.9 21.79-14.34 14.87-21.24 36.11-21.24 63.73v143.41h-66.4V98.23h66.4v143.4c11.15-11.68 24.43-20.71 40.9-27.09 15.93-5.84 33.99-9.03 53.64-9.03" fill="#fff" fill-rule="nonzero" transform="matrix(.273 0 0 .273 5.554 6.663)"/>
    <path d="m29 424.4 188.2-112.95-17.15-45.48 53.75-55.21 67.93-14.64 19.67 24.21-31.32 31.72-27.3 8.6-19.52 20.05 9.56 26.6 19.4 20.6 27.36-7.28 19.47-21.38 42.51-13.47 12.67 28.5-43.87 53.78-73.5 23.27-32.97-36.7L55.06 467.94C46.1 456.41 35.67 440.08 29 424.4m543.03-230.25-149.5 40.32c8.24 21.92 10.95 34.8 13.23 49l149.23-40.26c-2.38-15.94-6.65-32.17-12.96-49.06" fill="#1bd96a" transform="matrix(.273 0 0 .273 5.554 6.663)"/>
    <path d="M51.28 316.13c10.59 125 115.54 223.3 243.27 223.3 96.51 0 180.02-56.12 219.63-137.46l48.61 16.83c-46.78 101.34-149.35 171.75-268.24 171.75C138.6 590.55 10.71 469.38 0 316.13zM.78 265.24C15.86 116.36 141.73 0 294.56 0c162.97 0 295.28 132.31 295.28 295.28 0 26.14-3.4 51.49-9.8 75.63l-48.48-16.78a244.3 244.3 0 0 0 7.15-58.85c0-134.75-109.4-244.15-244.15-244.15-124.58 0-227.49 93.5-242.32 214.11z" fill="#1bd96a" transform="matrix(.273 0 0 .273 5.554 6.663)"/>
    <path d="M293.77 153.17c-78.49.07-142.2 63.83-142.2 142.34 0 78.56 63.79 142.34 142.35 142.34 3.98 0 7.93-.16 11.83-.49l14.22 49.76a195 195 0 0 1-26.05 1.74c-106.72 0-193.36-86.64-193.36-193.35 0-106.72 86.64-193.35 193.36-193.35 2.64 0 5.28.05 7.9.16zm58.2-42.13c78.39 24.67 135.3 97.98 135.3 184.47 0 80.07-48.77 148.83-118.2 178.18l-14.17-49.55c48.08-22.85 81.36-71.89 81.36-128.63 0-60.99-38.44-113.07-92.39-133.32z" fill="#1bd96a" transform="matrix(.273 0 0 .273 5.554 6.663)"/>
    <path d="M411.597 1355.36v-15.56l-1.008-3.31v-27.21c0-5.28-1.584-9.39-4.752-12.32-3.168-2.92-7.968-4.39-14.4-4.39-4.32 0-8.568.67-12.744 2.02q-6.264 2.01-10.584 5.61l-7.056-13.1c4.128-3.17 9.048-5.54 14.76-7.13q8.568-2.37 17.784-2.37c11.136 0 19.752 2.66 25.848 7.99 6.096 5.32 9.144 13.56 9.144 24.69v45.08zm-24.192 1c-5.76 0-10.8-.98-15.12-2.95s-7.656-4.7-10.008-8.21q-3.528-5.25-3.528-11.88c0-4.32 1.032-8.2 3.096-11.66s5.448-6.19 10.152-8.21 10.944-3.02 18.72-3.02h22.32v11.95h-21.024c-6.144 0-10.272.98-12.384 2.95s-3.168 4.39-3.168 7.27c0 3.27 1.296 5.86 3.888 7.78q3.888 2.88 10.8 2.88c4.416 0 8.376-1.01 11.88-3.02 3.504-2.02 6.024-5 7.56-8.93l3.024 10.8c-1.728 4.51-4.824 8.01-9.288 10.51s-10.104 3.74-16.92 3.74M494.253 1356.36q-9.36 0-17.064-4.32c-5.136-2.88-9.216-7.22-12.24-13.03s-4.536-13.17-4.536-22.1c0-9.03 1.464-16.42 4.392-22.18s6.936-10.06 12.024-12.89 10.896-4.24 17.424-4.24q11.376 0 20.088 4.89 8.712 4.905 13.824 13.68c3.408 5.86 5.112 12.77 5.112 20.74s-1.704 14.9-5.112 20.8c-3.408 5.91-8.016 10.49-13.824 13.76q-8.712 4.89-20.088 4.89m-42.624 26.93v-104.83h17.136v18.14l-.576 20.45 1.44 20.45v45.79zm40.608-42.34c4.32 0 8.184-.95 11.592-2.87 3.408-1.93 6.12-4.71 8.136-8.36 2.016-3.64 3.024-7.92 3.024-12.81 0-5-1.008-9.29-3.024-12.89q-3.024-5.4-8.136-8.28t-11.592-2.88-11.664 2.88-8.208 8.28c-2.016 3.6-3.024 7.89-3.024 12.89 0 4.89 1.008 9.17 3.024 12.81 2.016 3.65 4.752 6.43 8.208 8.36 3.456 1.92 7.344 2.87 11.664 2.87M593.037 1356.36q-9.36 0-17.064-4.32c-5.136-2.88-9.216-7.22-12.24-13.03s-4.536-13.17-4.536-22.1c0-9.03 1.464-16.42 4.392-22.18s6.936-10.06 12.024-12.89 10.896-4.24 17.424-4.24q11.376 0 20.088 4.89 8.712 4.905 13.824 13.68c3.408 5.86 5.112 12.77 5.112 20.74s-1.704 14.9-5.112 20.8c-3.408 5.91-8.016 10.49-13.824 13.76q-8.712 4.89-20.088 4.89m-42.624 26.93v-104.83h17.136v18.14l-.576 20.45 1.44 20.45v45.79zm40.608-42.34c4.32 0 8.184-.95 11.592-2.87 3.408-1.93 6.12-4.71 8.136-8.36 2.016-3.64 3.024-7.92 3.024-12.81 0-5-1.008-9.29-3.024-12.89q-3.024-5.4-8.136-8.28t-11.592-2.88-11.664 2.88-8.208 8.28c-2.016 3.6-3.024 7.89-3.024 12.89 0 4.89 1.008 9.17 3.024 12.81 2.016 3.65 4.752 6.43 8.208 8.36 3.456 1.92 7.344 2.87 11.664 2.87" fill="#1bd96a" fill-rule="nonzero" transform="translate(575.105 -1219.944)scale(1.00328)"/>
</svg>