<?xml version="1.0" encoding="utf-8" ?>
<svg xmlns="http://www.w3.org/2000/svg" xmlns:xlink="http://www.w3.org/1999/xlink" width="109" height="16">
	<path fill="none" stroke="white" stroke-width="2" stroke-miterlimit="5" transform="translate(81 2)" d="M4.1663136 -1.1221604e-16L19.833687 1.6832405e-16C21.282404 -9.7801117e-17 21.807745 0.15084162 22.337374 0.43409064C22.867004 0.71733969 23.28266 1.1329961 23.565908 1.6626258C23.849159 2.1922553 24 2.7175956 24 4.1663136L24 7.8336864C24 9.2824049 23.849159 9.807745 23.565908 10.337375C23.28266 10.867003 22.867004 11.28266 22.337374 11.565909C21.807745 11.849158 21.282404 12 19.833687 12L4.1663136 12C2.7175956 12 2.1922553 11.849158 1.6626258 11.565909C1.1329961 11.28266 0.71733969 10.867003 0.43409064 10.337375C0.15084162 9.807745 3.2600372e-17 9.2824049 -5.6108018e-17 7.8336864L1.1221604e-16 4.1663136C-6.5200745e-17 2.7175956 0.15084162 2.1922553 0.43409064 1.6626258C0.71733969 1.1329961 1.1329961 0.71733969 1.6626258 0.43409064C2.1922553 0.15084162 2.7175956 6.5200745e-17 4.1663136 -1.1221604e-16ZM25 4.0630088C25.862614 4.2850304 26.5 5.0680804 26.5 6C26.5 6.9319196 25.862614 7.7149696 25 7.9369912L25 4.0630088L25 4.0630088Z" fill-rule="evenodd"/>
	<path fill="white" transform="translate(83 4)" d="M1.9229139 -5.1792015e-17L18.077085 7.7688022e-17C18.745726 -4.5138978e-17 18.98819 0.069619209 19.232634 0.20034952C19.477079 0.33107984 19.668921 0.52292126 19.79965 0.76736569C19.93038 1.0118102 20 1.2542748 20 1.9229139L20 6.077086C20 6.7457252 19.93038 6.9881897 19.79965 7.2326341C19.668921 7.4770789 19.477079 7.66892 19.232634 7.7996507C18.98819 7.9303808 18.745726 8 18.077085 8L1.9229139 8C1.2542748 8 1.0118102 7.9303808 0.76736569 7.7996507C0.52292126 7.66892 0.33107984 7.4770789 0.20034952 7.2326341C0.069619209 6.9881897 1.5046326e-17 6.7457252 -2.5896007e-17 6.077086L5.1792015e-17 1.9229139C-3.0092652e-17 1.2542748 0.069619209 1.0118102 0.20034952 0.76736569C0.33107984 0.52292126 0.52292126 0.33107984 0.76736569 0.20034952C1.0118102 0.069619209 1.2542748 3.0092652e-17 1.9229139 -5.1792015e-17Z"/>
	<path fill="white" transform="translate(40 0)" d="M3.6189861 13L3.6189861 4.7173004L3.504591 4.7173004L1.0270977 6.4854584L1.0270977 4.9798431L3.6245403 3.1357422L5.1552563 3.1357422L5.1552563 13L3.6189861 13ZM11.277579 13.239899Q10.137473 13.239899 9.324584 12.610405Q8.5116949 11.980911 8.0746756 10.820938Q7.6376562 9.660965 7.6376562 8.0712891L7.6376562 8.0576172Q7.6376562 6.4679413 8.0746756 5.3113861Q8.5116949 4.1548309 9.324584 3.5253372Q10.137473 2.8958435 11.277579 2.8958435Q12.417686 2.8958435 13.232711 3.5253372Q14.047736 4.1548309 14.486945 5.3113861Q14.926154 6.4679413 14.926154 8.0576172L14.926154 8.0712891Q14.926154 9.660965 14.486945 10.820938Q14.047736 11.980911 13.232711 12.610405Q12.417686 13.239899 11.277579 13.239899ZM11.277579 11.962433Q11.942161 11.962433 12.410102 11.490967Q12.878043 11.019501 13.128036 10.147972Q13.378028 9.2764435 13.378028 8.0712891L13.378028 8.0576172Q13.378028 6.851181 13.128036 5.9830704Q12.878043 5.1149597 12.410102 4.646965Q11.942161 4.1789703 11.277579 4.1789703Q10.618552 4.1789703 10.150611 4.646965Q9.6826696 5.1149597 9.4348669 5.9830704Q9.1870642 6.851181 9.1870642 8.0576172L9.1870642 8.0712891Q9.1870642 9.2764435 9.4348669 10.147972Q9.6826696 11.019501 10.150611 11.490967Q10.618552 11.962433 11.277579 11.962433ZM20.226303 13.239899Q19.086197 13.239899 18.273308 12.610405Q17.460419 11.980911 17.023399 10.820938Q16.58638 9.660965 16.58638 8.0712891L16.58638 8.0576172Q16.58638 6.4679413 17.023399 5.3113861Q17.460419 4.1548309 18.273308 3.5253372Q19.086197 2.8958435 20.226303 2.8958435Q21.366409 2.8958435 22.181435 3.5253372Q22.99646 4.1548309 23.435669 5.3113861Q23.874878 6.4679413 23.874878 8.0576172L23.874878 8.0712891Q23.874878 9.660965 23.435669 10.820938Q22.99646 11.980911 22.181435 12.610405Q21.366409 13.239899 20.226303 13.239899ZM20.226303 11.962433Q20.890884 11.962433 21.358826 11.490967Q21.826767 11.019501 22.076759 10.147972Q22.326752 9.2764435 22.326752 8.0712891L22.326752 8.0576172Q22.326752 6.851181 22.076759 5.9830704Q21.826767 5.1149597 21.358826 4.646965Q20.890884 4.1789703 20.226303 4.1789703Q19.567276 4.1789703 19.099335 4.646965Q18.631393 5.1149597 18.383591 5.9830704Q18.135788 6.851181 18.135788 8.0576172L18.135788 8.0712891Q18.135788 9.2764435 18.383591 10.147972Q18.631393 11.019501 19.099335 11.490967Q19.567276 11.962433 20.226303 11.962433ZM27.666954 8.4044342Q27.004189 8.4044342 26.526741 8.074707Q26.049294 7.7449799 25.792198 7.1374359Q25.535103 6.529892 25.535103 5.7026367L25.535103 5.6958008Q25.535103 4.8617096 25.792198 4.2575836Q26.049294 3.6534576 26.526741 3.3271484Q27.004189 3.0008392 27.666954 3.0008392Q28.331001 3.0008392 28.810638 3.3271484Q29.290276 3.6534576 29.54673 4.2575836Q29.803185 4.8617096 29.803185 5.6958008L29.803185 5.7026367Q29.803185 6.529892 29.54673 7.1374359Q29.290276 7.7449799 28.810638 8.074707Q28.331001 8.4044342 27.666954 8.4044342ZM27.666954 7.488205Q28.151558 7.488205 28.420189 7.0182343Q28.68882 6.5482635 28.68882 5.7026367L28.68882 5.6958008Q28.68882 4.848999 28.420189 4.3830338Q28.151558 3.9170685 27.666954 3.9170685Q27.183739 3.9170685 26.917244 4.3830338Q26.650749 4.848999 26.650749 5.6958008L26.650749 5.7026367Q26.650749 6.5482635 26.917244 7.0182343Q27.183739 7.488205 27.666954 7.488205ZM28.689781 13L27.409431 13L34.09594 3.1357422L35.376396 3.1357422L28.689781 13ZM35.108833 13.134903Q34.446068 13.134903 33.968567 12.805176Q33.491066 12.475449 33.234024 11.870682Q32.976982 11.265915 32.976982 10.433105L32.976982 10.42627Q32.976982 9.5921783 33.234024 8.9880524Q33.491066 8.3839264 33.968567 8.0576172Q34.446068 7.731308 35.108833 7.731308Q35.772881 7.731308 36.252518 8.0576172Q36.732155 8.3839264 36.988609 8.9880524Q37.245064 9.5921783 37.245064 10.42627L37.245064 10.433105Q37.245064 11.265915 36.988609 11.870682Q36.732155 12.475449 36.252518 12.805176Q35.772881 13.134903 35.108833 13.134903ZM35.108833 12.218674Q35.593437 12.218674 35.862068 11.748703Q36.130699 11.278732 36.130699 10.433105L36.130699 10.42627Q36.130699 9.579361 35.862068 9.1134491Q35.593437 8.6475372 35.108833 8.6475372Q34.625511 8.6475372 34.35907 9.1134491Q34.092628 9.579361 34.092628 10.42627L34.092628 10.433105Q34.092628 11.278732 34.35907 11.748703Q34.625511 12.218674 35.108833 12.218674Z"/>
	<path fill="white" transform="translate(21 3.66666)" d="M7.0001216 3.4614501C8.7240486 3.4614501 10.293564 4.1244502 11.470078 5.20995C11.589622 5.3204498 11.589125 5.5129499 11.474063 5.6284499L10.415599 6.6909499C10.306515 6.8004498 10.13467 6.7994499 10.019608 6.6964502C9.21667 5.9769502 8.1587038 5.5384498 7.0001216 5.5384498C5.8415389 5.5384498 4.7835732 5.9769502 3.9806345 6.6964502C3.8655732 6.7994499 3.6937284 6.8004498 3.5846443 6.6909499L2.52618 5.6284499C2.4111187 5.5129499 2.4106207 5.3204498 2.530165 5.20995C3.7066791 4.1244502 5.2761946 3.4614501 7.0001216 3.4614501ZM7 0C9.6772919 0 12.109518 1.0505 13.911647 2.763C14.029199 2.8745 14.028701 3.0639999 13.914636 3.1789999L12.854677 4.243C12.744596 4.3530002 12.570261 4.3525 12.457192 4.2459998C11.028141 2.9015 9.1084604 2.0769999 7 2.0769999C4.8915391 2.0769999 2.9718587 2.9015 1.5428075 4.2459998C1.4297386 4.3525 1.2554034 4.3530002 1.145323 4.243L0.085364535 3.1789999C-0.028700549 3.0639999 -0.02919865 2.8745 0.088353142 2.763C1.8904818 1.0505 4.3227081 0 7 0ZM9.0357103 8.0775995C9.1512699 7.9615998 9.1522665 7.7660999 9.0272427 7.6610999C8.4783354 7.2006001 7.7725267 6.9231 7.0014668 6.9231C6.2304068 6.9231 5.5240998 7.2006001 4.9756908 7.6610999C4.8501697 7.7660999 4.8516636 7.9615998 4.9672232 8.0775995L6.7982416 9.9155998C6.9103146 10.0281 7.0926194 10.0281 7.2046919 9.9155998L9.0357103 8.0775995Z" fill-rule="evenodd"/>
	<path fill="white" transform="translate(0 4)" d="M1.254602 5.5L1.745398 5.5C2.1583486 5.5 2.32546 5.5464129 2.4884229 5.6335664C2.6513858 5.7207198 2.7792802 5.8486142 2.8664336 6.0115771C2.9535873 6.17454 3 6.3416514 3 6.754602L3 8.7453985C3 9.158349 2.9535873 9.3254595 2.8664336 9.4884224C2.7792802 9.6513863 2.6513858 9.7792797 2.4884229 9.8664341C2.32546 9.9535875 2.1583486 10 1.745398 10L1.254602 10C0.84165138 10 0.6745401 9.9535875 0.51157713 9.8664341C0.34861419 9.7792797 0.2207199 9.6513863 0.13356635 9.4884224C0.046412807 9.3254595 9.6960573e-18 9.158349 -1.5589871e-17 8.7453985L3.1179743e-17 6.754602C-1.9392115e-17 6.3416514 0.046412807 6.17454 0.13356635 6.0115771C0.2207199 5.8486142 0.34861419 5.7207198 0.51157713 5.6335664C0.6745401 5.5464129 0.84165138 5.5 1.254602 5.5ZM5.754602 4L6.245398 4C6.6583486 4 6.82546 4.0464129 6.9884229 4.1335664C7.1513858 4.2207198 7.2792802 4.3486142 7.3664336 4.5115771C7.4535871 4.67454 7.5 4.8416514 7.5 5.254602L7.5 8.7453985C7.5 9.158349 7.4535871 9.3254595 7.3664336 9.4884224C7.2792802 9.6513863 7.1513858 9.7792797 6.9884229 9.8664341C6.82546 9.9535875 6.6583486 10 6.245398 10L5.754602 10C5.3416514 10 5.17454 9.9535875 5.0115771 9.8664341C4.8486142 9.7792797 4.7207198 9.6513863 4.6335664 9.4884224C4.5464129 9.3254595 4.5 9.158349 4.5 8.7453985L4.5 5.254602C4.5 4.8416514 4.5464129 4.67454 4.6335664 4.5115771C4.7207198 4.3486142 4.8486142 4.2207198 5.0115771 4.1335664C5.17454 4.0464129 5.3416514 4 5.754602 4ZM10.254601 2L10.745399 2C11.158349 2 11.325459 2.0464127 11.488422 2.1335664C11.651386 2.2207198 11.77928 2.3486142 11.866434 2.5115771C11.953588 2.67454 12 2.8416514 12 3.254602L12 8.7453985C12 9.158349 11.953588 9.3254595 11.866434 9.4884224C11.77928 9.6513863 11.651386 9.7792797 11.488422 9.8664341C11.325459 9.9535875 11.158349 10 10.745399 10L10.254601 10C9.841651 10 9.6745405 9.9535875 9.5115776 9.8664341C9.3486137 9.7792797 9.2207203 9.6513863 9.1335659 9.4884224C9.0464125 9.3254595 9 9.158349 9 8.7453985L9 3.254602C9 2.8416514 9.0464125 2.67454 9.1335659 2.5115771C9.2207203 2.3486142 9.3486137 2.2207198 9.5115776 2.1335664C9.6745405 2.0464127 9.841651 2 10.254601 2ZM14.754601 -3.1179743e-17L15.245399 4.6769612e-17C15.658349 -2.9088174e-17 15.825459 0.046412807 15.988422 0.13356635C16.151386 0.2207199 16.27928 0.34861419 16.366434 0.51157713C16.453587 0.6745401 16.5 0.84165138 16.5 1.254602L16.5 8.7453985C16.5 9.158349 16.453587 9.3254595 16.366434 9.4884224C16.27928 9.6513863 16.151386 9.7792797 15.988422 9.8664341C15.825459 9.9535875 15.658349 10 15.245399 10L14.754601 10C14.341651 10 14.174541 9.9535875 14.011578 9.8664341C13.848614 9.7792797 13.72072 9.6513863 13.633566 9.4884224C13.546412 9.3254595 13.5 9.158349 13.5 8.7453985L13.5 1.254602C13.5 0.84165138 13.546412 0.6745401 13.633566 0.51157713C13.72072 0.34861419 13.848614 0.2207199 14.011578 0.13356635C14.174541 0.046412807 14.341651 1.9392115e-17 14.754601 -3.1179743e-17Z" fill-rule="evenodd"/>
</svg>
