<svg version="1.1" xmlns="http://www.w3.org/2000/svg" xmlns:xlink="http://www.w3.org/1999/xlink" width="496" height="496" viewBox="0,0,496,496"><g transform="translate(8,68)"><g data-paper-data="{&quot;isPaintingLayer&quot;:true}" fill="#9aa0a6" fill-rule="nonzero" stroke="none" stroke-width="1" stroke-linecap="butt" stroke-linejoin="miter" stroke-miterlimit="10" stroke-dasharray="" stroke-dashoffset="0" style="mix-blend-mode: normal"><path d="M488,180c0,136.97 -111.03,248 -248,248c-136.97,0 -248,-111.03 -248,-248c0,-136.97 111.03,-248 248,-248c136.97,0 248,111.03 248,248zM336.01,256.62c0.00139,-8.0897 -3.21081,-15.84863 -8.93,-21.57l-13.69,-13.69c-6.01,-6 -14.14,-9.37 -22.63,-9.37h-66.75c-9.41,-4.71 -21.48,-32 -32,-32c-10.52,0 -20.9,-2.45 -30.31,-7.16l-11.08,-5.54c-4.05,-2.03 -6.61,-6.16 -6.61,-10.69c-0.00155,-5.14455 3.28961,-9.71269 8.17,-11.34l31.17,-10.39c5.3671,-1.78472 11.27759,-0.60643 15.55,3.1l9.28,8.06c1.45,1.26 3.31,1.96 5.24,1.96h5.64c5.94,0 9.81,-6.26 7.15,-11.58l-15.59,-31.19c-1.55376,-3.11675 -0.91503,-6.88037 1.58,-9.31l9.92,-9.65c1.5,-1.46 3.5,-2.27 5.58,-2.27h8.99c2.1222,0.00079 4.15793,-0.84084 5.66,-2.34l8,-8c3.12,-3.12 3.12,-8.19 0,-11.31l-4.69,-4.69c-3.12,-3.12 -3.12,-8.19 0,-11.31l10.34,-10.34l4.69,-4.68c6.25,-6.25 6.25,-16.38 0,-22.63l-28.3,-28.3c-8.27,0.31 -16.4,1.13 -24.39,2.42v11.3c0,11.9 -12.52,19.63 -23.16,14.31l-24.01,-12.01c-45.84,19.85 -82.73,56.39 -103.2,101.89c9.93,14.72 25.21,37.37 34.59,51.14c5.16713,7.61208 11.23063,14.57537 18.06,20.74l0.8,0.72c9.55,8.61 20.17,15.97 31.65,21.75c14,7.05 34.44,18.16 48.81,26.11c10.19,5.63 16.46,16.33 16.46,27.97v32.01c0,8.49 3.37,16.63 9.37,22.63c14.99,14.99 24.32,38.63 22.63,51.25v27.38c14.65,0 28.89,-1.69 42.65,-4.69l17.39,-46.85c2.04,-5.49 3.26,-11.21 4.77,-16.87c1.07,-4.01 3.18,-7.71 6.17,-10.71c3.32,-3.33 7.41,-7.4 11.31,-11.28c8.77835,-8.73057 13.71585,-20.59928 13.72,-32.98zM438.18,205.54c1.08,-8.38 1.82,-16.87 1.82,-25.54c0,-32.13 -7.8,-62.41 -21.32,-89.33l-12.98,6.49c-3.74,1.86 -6.92,4.68 -9.24,8.15l-19.59,29.38c-5.37998,8.05785 -5.37998,18.56215 0,26.62l17.98,26.97c3.31,4.97 8.36,8.52 14.15,9.97z"/></g></g></svg>